<?xml version="1.0" encoding="UTF-8" standalone="no"?>
<!-- Creator: CorelDRAW 2018 (64-Bit) -->

<svg
   xml:space="preserve"
   width="190mm"
   height="190mm"
   version="1.1"
   style="shape-rendering:geometricPrecision; text-rendering:geometricPrecision; image-rendering:optimizeQuality; fill-rule:evenodd; clip-rule:evenodd"
   viewBox="0 0 19000 19000"
   inkscape:output_extension="org.inkscape.output.svg.inkscape"
   sodipodi:docname="logo2.svg"
   inkscape:version="1.4.2 (f4327f4, 2025-05-13)"
   sodipodi:version="0.32"
   enable-background="new 1.941 1.593 198.008 197.549"
   id="svg54"
   xmlns:inkscape="http://www.inkscape.org/namespaces/inkscape"
   xmlns:sodipodi="http://sodipodi.sourceforge.net/DTD/sodipodi-0.dtd"
   xmlns="http://www.w3.org/2000/svg"
   xmlns:svg="http://www.w3.org/2000/svg">
 <defs
   id="defs1">
  <style
   type="text/css"
   id="style1">
   <![CDATA[
    .str0 {stroke:black;stroke-width:20;stroke-miterlimit:22.9256}
    .str1 {stroke:white;stroke-width:20;stroke-miterlimit:22.9256}
    .fil0 {fill:none}
    .fil5 {fill:none;fill-rule:nonzero}
    .fil2 {fill:#234082}
    .fil3 {fill:#C82222}
    .fil1 {fill:white}
    .fil4 {fill:white;fill-rule:nonzero}
   ]]>
  </style>
 </defs>
 <g
   id="Layer_x0020_1"
   inkscape:label="Layer 1">
  <metadata
   id="CorelCorpID_0Corel-Layer" />
  <sodipodi:namedview
   id="base"
   inkscape:cx="195.86858"
   pagecolor="#ffffff"
   inkscape:cy="7.0710678"
   showgrid="false"
   inkscape:zoom="0.70710678"
   objecttolerance="10.0"
   borderopacity="1.0"
   gridtolerance="10.0"
   bordercolor="#666666"
   guidetolerance="10.0"
   inkscape:current-layer="Layer_x0020_1"
   inkscape:window-y="186"
   inkscape:window-x="729"
   inkscape:pageopacity="0.0"
   inkscape:pageshadow="2"
   inkscape:window-width="1280"
   inkscape:window-height="968"
   inkscape:showpageshadow="2"
   inkscape:pagecheckerboard="0"
   inkscape:deskcolor="#d1d1d1"
   inkscape:document-units="mm"
   inkscape:window-maximized="0">
   <inkscape:grid
   type="xygrid"
   id="grid5828"
   originx="0"
   originy="0"
   spacingy="1"
   spacingx="1"
   units="px" />
  </sodipodi:namedview>
  <g
   id="flowRoot5811">
  </g>
  <circle
   class="fil0 str0"
   cx="9500"
   cy="9500"
   r="9450.08"
   id="circle1" />
  <circle
   class="fil1"
   cx="9480"
   cy="9500"
   r="8476.02"
   id="circle2" />
  <path
   class="fil2"
   d="M 7505.25,209.52 C 12636.24,-881.11 17679.87,2394.25 18770.49,7525.25 19861.12,12656.24 16585.75,17699.86 11454.75,18790.48 6323.76,19881.11 1280.13,16605.75 189.51,11474.75 -901.12,6343.76 2374.25,1300.14 7505.25,209.52 Z M 9480,1775 c 4266.4,0 7725,3458.6 7725,7725 0,4266.39 -3458.59,7725 -7725,7725 -4266.4,0 -7725,-3458.6 -7725,-7725 0,-4266.39 3458.59,-7725 7725,-7725 z"
   id="path2"
   sodipodi:nodetypes="cccccsssss"
   style="fill:#000000" />
  <path
   class="fil3"
   d="M9480 2025c4128.32,0 7475,3346.67 7475,7475 0,4128.32 -3346.67,7475 -7475,7475 -4128.32,0 -7475,-3346.67 -7475,-7475 0,-4128.32 3346.67,-7475 7475,-7475zm0 115c4064.82,0 7360,3295.17 7360,7360 0,4064.82 -3295.17,7360 -7360,7360 -4064.82,0 -7360,-3295.17 -7360,-7360 0,-4064.82 3295.17,-7360 7360,-7360z"
   id="path3"
   style="fill:#000000" />
  <path
   class="fil3"
   d="M9480 2352.5c3947.47,0 7147.5,3200.02 7147.5,7147.5 0,3947.47 -3200.02,7147.5 -7147.5,7147.5 -3947.47,0 -7147.5,-3200.02 -7147.5,-7147.5 0,-3947.47 3200.02,-7147.5 7147.5,-7147.5zm0 250c3809.41,0 6897.5,3088.08 6897.5,6897.5 0,3809.41 -3088.08,6897.5 -6897.5,6897.5 -3809.41,0 -6897.5,-3088.08 -6897.5,-6897.5 0,-3809.41 3088.08,-6897.5 6897.5,-6897.5z"
   id="path4"
   style="fill:#000000;fill-opacity:1;stroke-width:300.00000289;stroke-dasharray:none;stroke:#000000;stroke-opacity:1" />
  
  
  
  
  
  
  
  <rect
   style="shape-rendering:geometricPrecision;text-rendering:geometricPrecision;image-rendering:optimizeQuality;fill-rule:evenodd;clip-rule:evenodd;fill:#000000;fill-opacity:1;stroke:#000000;stroke-width:300.00000289;stroke-dasharray:none;stroke-opacity:1"
   id="rect55"
   width="187.08867"
   height="14143.904"
   x="9279.5986"
   y="2432.1528" /><rect
   style="shape-rendering:geometricPrecision;text-rendering:geometricPrecision;image-rendering:optimizeQuality;fill-rule:evenodd;clip-rule:evenodd;fill:#000000;fill-opacity:1;stroke:#000000;stroke-width:300.00000289;stroke-dasharray:none;stroke-opacity:1"
   id="rect55-1"
   width="187.81241"
   height="13932.961"
   x="-9506.2754"
   y="2426.02"
   transform="rotate(-90)" />
  <path
   class="fil3"
   d="m 9397.6766,2338.9849 c 2369.0714,0 4289.5674,3202.0457 4289.5674,7152.0241 0,3949.969 -1920.49,7152.024 -4289.5674,7152.024 -2369.0717,0 -4289.5678,-3202.045 -4289.5678,-7152.024 0,-3949.9684 1920.4901,-7152.0241 4289.5678,-7152.0241 z m 0,250.1583 c 2286.2154,0 4139.5314,3090.0348 4139.5314,6901.8658 0,3811.821 -1853.31,6901.866 -4139.5314,6901.866 -2286.215,0 -4139.5304,-3090.035 -4139.5304,-6901.866 0,-3811.821 1853.3093,-6901.8658 4139.5304,-6901.8658 z"
   id="path4-4"
   style="clip-rule:evenodd;fill:#000000;fill-opacity:1;fill-rule:evenodd;stroke:#000000;stroke-width:300.00000289;stroke-dasharray:none;stroke-opacity:1;image-rendering:optimizeQuality;shape-rendering:geometricPrecision;text-rendering:geometricPrecision" /><path
   class="fil3"
   d="M8461.91 7546.75c86.43,-28.66 283.19,-16.05 330.63,49.5 59.26,81.89 17.15,576.93 -102.46,662.06 -178.84,127.3 -106.37,122.65 -184.91,204.35 -86.09,89.53 -225.28,-22.86 -274.62,-74.73 -96.2,-101.16 -55.86,-168.76 -44.25,-319.39 14.94,-194.04 69.68,-453.5 275.61,-521.79zm-800.86 904.64c-113.84,9.8 -253.67,-94.75 -255.04,-185.4 -2.58,-171.11 -31.53,-650.75 91.61,-775.73 96.18,-97.62 233.11,-13.86 353.45,2.89 66.91,179.06 -11.46,331.69 -63.7,482 -48.22,138.75 -100.55,49.16 -106.92,196.91 -5.62,130.2 16.45,143.07 -19.4,279.33zm-2435.32 -1158.74c103.71,7.67 191.43,34.85 292.34,54.66 152.66,29.97 135.24,9.96 243.27,93.81 77.13,59.86 234.68,272.75 273.67,395.6 -61.9,146.68 -259.18,231.68 -417.9,98.82l24.14 -183.93c-81.51,-8.4 -103.55,56.1 -129.11,99.84 -188.65,-50.73 -435.41,-283.3 -286.41,-558.8zm6647.31 -1969.32c-64.73,-76.43 -167.98,-142.74 -267.81,-203.5 -595.14,-362.19 -1358.09,-414.15 -1704.26,-649.91 -67.02,-45.64 -88.16,-52.03 -96.28,-154.41 -22.73,-286.64 22.76,-359.03 91.28,-606.11l-134.06 -0.78c-47.73,108.69 -101.8,403.65 -131.57,534.13l-366.61 1580.84c-83.53,356.25 -167.23,702.99 -245.74,1063.71 -45.2,207.68 -51.13,384.96 -186.25,468.46 -164.39,101.59 -362.91,74.95 -485.59,-34.75 340.29,-534.94 -193.62,-694.92 -324.85,-422.02 -45.39,94.39 -36.92,227.61 -7.46,329.58 -162.57,25.52 -171.64,27.68 -312.9,75.85 -247.8,84.49 -309.26,-69.89 -334.68,160.42 -8.32,75.37 -24.08,169.5 -86.98,215.43 -52.35,38.22 -59.05,26.38 -122.12,9.81 -74.28,-105.52 -3.29,-249.3 -9.19,-399.36 -46.12,-27.43 -98.87,-44.23 -167.07,-37.73 -24.15,132.09 19.76,174.7 -48.39,292.04 -71.14,-109.1 -146.62,-194.53 -285.46,-210.47 -18.87,-178.63 98.64,-168.17 -0.31,-353.62l-104.05 15.42 -41.05 242.91c-94.69,-26.61 -90.52,-71.33 -162.28,-128.02 -48.95,-38.67 -105.08,-87.78 -159.31,-124.45 -132.42,-89.57 -248.22,-132.51 -449.52,-122.26l-30.93 -194.5c-80.01,-19.43 -114.08,-25.72 -187.6,3.73 -21.35,113.87 56.65,142.52 45.02,277.95 -60.34,126.95 -459.13,155.9 -472.21,265.5 14.6,95.87 36.64,5.42 28.61,117.98 -2.68,37.54 -12.82,80.87 -14.51,129.49 -8.28,238.26 159.29,440.99 367.81,536.51 8.93,271.93 -238.16,302.57 -224.81,632.02 52.53,45.74 104.77,81.35 189.96,37.82 84.48,-48.56 61.89,-224.64 82.59,-315.31 25.96,-113.72 92.13,-176.43 129.97,-258.97 220.28,4.32 223.3,13.53 428.5,-30.49 12.2,119.86 38.73,280.11 14.31,405.08 -32.14,164.51 -276.29,332.27 -388.69,442.23 -67.69,66.22 -137.86,134.55 -183.74,223.09 -111.83,215.77 -162.95,399.62 -143.7,682.72 22.91,336.93 233.33,362.14 255.99,548.43 -120.67,99.32 -169.08,106.16 -385.77,300.1 -29.71,26.59 -50.71,36.43 -80.83,61.61 -196.73,164.44 -458.01,582.37 -492.42,852.49 -43.92,344.73 -23.52,699.63 0.76,1039.39 20.37,285.09 -123.28,440.53 -117.86,684.98 2.46,110.66 21.44,113.43 84.31,173.72 223.28,15.3 206.1,-137.92 238.09,-312.07 29.9,-162.73 67.68,-299.56 68.44,-481.45 1.53,-363.13 -66.27,-644.37 -0.88,-1008.11 52.7,-293.11 148.93,-532.23 399.71,-698.36 71.46,-47.33 84.07,-83.63 155.74,-127.67 172.33,-105.9 391.19,-102.03 498.89,-297.53 85.99,66.84 110.6,158.03 224.51,199.26 -33.05,110.89 -153.37,225.06 -222.5,280.89 -369.38,298.32 -171.74,793.17 -69.48,1142.73 120.36,411.44 26.65,1142.57 114.54,1371.27 33.24,86.47 200.42,203.98 297.97,111.63 53.75,-61.24 13.09,-221.68 4.66,-302.46 -10.16,-97.21 -23.44,-187.72 -39.18,-286.41 -78.17,-489.94 -289.23,-1265.19 -91.03,-1713.41 71.75,-162.26 191.21,-236.04 337.97,-316.99 553.27,-305.2 354.6,-460.1 848.51,-457.95 100.5,0.44 198.42,-1.56 282.5,-39.16 100.03,-44.74 107.7,-69.08 168.64,-145.88l362.39 -32.21c36.66,440.39 -129.73,951.5 -211.72,1364.47 -37.85,190.64 -223.33,1260.6 -165.34,1383.58 240.72,217.33 319.25,-1225.22 332.57,-1378.93 21.29,-245.82 161.98,-1344.85 261.67,-1484.73 27.25,-32.99 362.55,-173.12 418.66,-204.01 78.02,-42.95 125.61,-74.77 197.81,-120.28 105.67,-66.61 132.74,-23.31 254.8,-44.19 298.71,-51.1 799.74,-433.38 887.53,-151.52 -45.08,82.16 -199.41,137.91 -275.25,212.85l18.76 85.56c127.81,3.2 242.88,-54.63 316.29,38.03 59.15,74.65 109.78,110.96 210.58,161.92 177.49,89.72 340.18,167.25 492.31,268.6 153.76,102.43 285.08,203.6 297.65,471.69 5.09,108.62 -22.22,232.74 -69.54,310.46 -78.21,128.46 -686.28,784.64 -860.09,1034.27 -73.75,105.93 -564.37,864.09 -523.68,970.7 64.8,69.99 177.75,72.14 276.43,20.78 50.22,-105.46 25.14,-271.87 88.44,-353.84 19.96,-25.85 36.34,-30.86 61.8,-61.16 191.56,-227.98 309.3,-466.45 477.69,-726.4 224.1,-345.97 497.75,-591.09 807.9,-837.82 164.45,-130.82 71.58,-518.23 17.28,-695.29 -33.78,-110.15 -22.81,-205.27 24.36,-307.16 51.21,-110.64 92.1,-127.15 186.5,-190.86 179.69,33.01 258.87,186.98 345.78,296.41 103.9,130.83 201.19,193.43 272.39,347.43 63.57,137.48 134.62,289.69 221.88,396.82 186.63,229.12 -40.43,734.67 -73.85,1019.55 -13.06,111.28 -45.73,143.45 -84.73,237.03 -95.13,228.28 -31.14,466.3 -177.48,600.93 -43.86,40.34 -27.37,21.38 -58.2,83.57 -47.27,95.38 -193.14,316.37 -198.76,421.42 51.21,86.92 107.66,140.77 245.42,120.43 71.4,-10.55 90.91,-22.75 114.43,-79.94 150.92,-367.01 164.38,-696.26 260.61,-1030.88 30.26,-105.21 79.23,-155.65 134.15,-237.89 45.14,-67.6 93.02,-154.08 135.72,-236.78 66.54,-128.9 79.45,-127.01 81.34,-287.09 2.28,-194.52 119.62,-497.61 61.76,-661.3 -119.77,-338.84 -479.16,-379.13 -438.18,-659.04 33.59,-229.41 376.55,-215.09 295.61,-768.19 175.68,-180.4 353.34,-140.92 465.41,96.4 108.73,230.24 -43.95,392.69 137.36,623 112.26,142.61 232.62,278.26 365.5,395.96 448.9,397.61 286.57,678.83 308.87,1202.48 7.06,165.91 149.49,383.79 205.06,549.27 86.95,258.91 70.55,394.4 59.26,672 -15.73,386.96 237.13,281.64 313.32,90.72 168.76,-422.89 -473.71,-1402.41 -351.52,-1874.86 27.94,-108.01 50.55,-219.38 44.73,-337.89 -12.31,-250.71 -332.46,-497.88 -504.97,-642.08 -475.17,-397.21 -321.25,-648.95 -517.24,-1004.85 -166.51,-302.38 -422.81,-86.56 -566.16,-118.21 -62.65,-31.9 -116.02,-135.58 -167.73,-192.16 -143.01,-156.46 -270.84,-314.8 -434.36,-450.69 -282.71,-234.92 -594.22,-442.46 -1020.65,-554.84 -433.85,-114.34 -827.31,-56.09 -1248.87,36.92 -264.38,58.32 -576.41,130.1 -813.88,248.19 -88.1,43.8 -189.85,57.63 -268.22,10.36 -69.88,-86.91 257.94,-1406.21 307.53,-1670.42 32.71,-174.24 60.94,-382.57 101.38,-552.69 28.22,-118.68 111.61,-29.63 189.96,12.55 238.79,128.58 579.28,98.29 777.43,214.21 77.5,45.33 121.09,84.63 207.78,128.83 221.83,113.09 495.94,203.58 745.57,248.73l7.81 -152.45c-360.51,-74.22 -418.3,-69.83 -703.37,-269.5 61.96,-700.81 50.83,-355.29 204.96,-611.61 209.99,75.83 521.87,277.7 762.42,271.16l0 -186c-260.57,-102.09 -534.99,-47.29 -738.54,-236.03 -4.57,-178.84 19,-528.09 125.88,-636.58 330.04,-0.69 666.76,283.73 886.36,402.71l115.88 -84.73z"
   id="path54"
   style="fill:#000000;stroke:#ffffff;stroke-opacity:1;stroke-width:300.00000289;stroke-dasharray:none;stroke-linejoin:miter;stroke-linecap:butt;paint-order:markers stroke fill" />
 </g><g
   inkscape:groupmode="layer"
   id="layer1"
   inkscape:label="Layer 2" />
</svg>
